<?xml version="1.0" encoding="UTF-8"?>
<svg id="Ebene_2" data-name="Ebene 2" xmlns="http://www.w3.org/2000/svg" viewBox="0 0 533.52 528.47">
  <defs>
    <style>
      .cls-1 {
        fill: #bccd00;
      }
    </style>
  </defs>
  <g id="Ebene_1-2" data-name="Ebene 1">
    <path class="cls-1" d="M0,122.01v39.71c0,15.16,8.66,17.33,20.21,7.22,50.54-49.81,149.44-86.63,245.46-86.63s199.26,39.71,248.35,86.63c11.55,11.55,19.49,7.94,19.49-7.22v-39.71c0-8.66-.72-14.44-6.5-20.94C482.26,46.93,373.97,0,265.68,0S51.98,44.76,7.22,101.07c-5.78,6.5-7.22,12.27-7.22,20.94ZM265.68,423.06c-51.26,0-93.85-42.6-93.85-94.58s42.6-93.85,93.85-93.85,94.58,42.6,94.58,93.85-42.6,94.58-94.58,94.58ZM265.68,528.47c142.95,0,261.35-124.18,267.84-254.85,0-7.22-.72-13-6.5-19.49-44.76-54.15-153.05-101.8-261.35-101.8S51.98,197.09,7.22,254.13c-5.78,6.5-7.22,12.27-7.22,20.21,7.22,131.4,123.45,254.13,265.68,254.13Z"/>
  </g>
</svg>