<?xml version="1.0" encoding="UTF-8"?>
<svg id="Ebene_2" data-name="Ebene 2" xmlns="http://www.w3.org/2000/svg" viewBox="0 0 739 732">
  <g id="Ebene_1-2" data-name="Ebene 1">
    <path d="M0,169v55c0,21,12,24,28,10,70-69,207-120,340-120s276,55,344,120c16,16,27,11,27-10v-55c0-12-1-20-9-29C668,65,518,0,368,0S72,62,10,140c-8,9-10,17-10,29ZM368,586c-71,0-130-59-130-131s59-130,130-130,131,59,131,130-59,131-131,131ZM368,732c198,0,362-172,371-353,0-10-1-18-9-27-62-75-212-141-362-141S72,273,10,352c-8,9-10,17-10,28,10,182,171,352,368,352Z"/>
  </g>
</svg>