<?xml version="1.0" encoding="UTF-8"?>
<svg id="Ebene_2" data-name="Ebene 2" xmlns="http://www.w3.org/2000/svg" viewBox="0 0 524.14 523.42">
  <defs>
    <style>
      .cls-1 {
        fill: #af0a7f;
      }
    </style>
  </defs>
  <g id="Ebene_1-2" data-name="Ebene 1">
    <path class="cls-1" d="M188.43,285.89L0,474.32l48.37,49.09,189.15-188.43c13-13,21.66-25.99,23.82-30.32,2.17,3.61,10.83,15.88,25.27,30.32l189.15,188.43,48.37-49.09-188.43-188.43c-13-13-25.99-21.66-30.32-23.82,3.61-2.17,15.88-10.83,30.32-25.27l187.71-188.43L474.32,0l-187.71,187.71c-13,13-21.66,25.99-23.82,30.32-2.17-3.61-10.83-15.88-25.27-30.32L49.81,0,.72,48.37l187.71,188.43c13,13,25.99,21.66,30.32,23.82-3.61,2.17-15.88,10.83-30.32,25.27Z"/>
  </g>
</svg>