<?xml version="1.0" encoding="UTF-8"?>
<svg id="Ebene_2" data-name="Ebene 2" xmlns="http://www.w3.org/2000/svg" viewBox="0 0 613.66 505.37">
  <defs>
    <style>
      .cls-1 {
        fill: #af0a7f;
      }
    </style>
  </defs>
  <g id="Ebene_1-2" data-name="Ebene 1">
    <path class="cls-1" d="M211.53,298.89l-139.34,140.78V64.98h469.27v301.78l-136.45-137.89-131.4,132.84-62.09-62.81ZM200.7,231.75c31.04,0,56.31-25.27,56.31-56.31s-25.27-56.31-56.31-56.31-56.31,25.27-56.31,56.31,25.27,56.31,56.31,56.31ZM28.88,505.37h555.9c18.77,0,28.88-10.11,28.88-28.88V28.88c0-18.77-10.11-28.88-28.88-28.88H28.88C10.11,0,0,10.11,0,28.88v447.61c0,18.77,10.11,28.88,28.88,28.88Z"/>
  </g>
</svg>