<?xml version="1.0" encoding="UTF-8"?>
<svg id="Ebene_2" data-name="Ebene 2" xmlns="http://www.w3.org/2000/svg" viewBox="0 0 523.86 522.89">
  <defs>
    <style>
      .cls-1 {
        fill: #af0a7f;
      }
    </style>
  </defs>
  <g id="Ebene_1-2" data-name="Ebene 1">
    <path class="cls-1" d="M129.13,311.52l-18.05-17.33L360.88,45.12l17.33,17.33-249.07,249.07ZM51.16,440.75l-6.5-2.89,39.71-116.23,118.4,117.68-116.23,38.99-3.61-5.78c-7.22-14.44-17.33-23.82-31.77-31.77ZM47.55,312.97L4.23,456.64c-15.16,49.81,11.55,77.25,62.09,62.09l144.39-42.6c15.16-4.33,26.71-10.83,38.26-22.38l263.51-262.79c15.16-15.88,15.16-33.21,0-48.37L381.09,11.91c-15.16-15.88-32.49-15.88-47.65,0L69.93,274.7c-11.55,11.55-18.77,22.38-22.38,38.26Z"/>
  </g>
</svg>